<?xml version="1.0" encoding="UTF-8"?>
<svg version="1.1" xmlns="http://www.w3.org/2000/svg" width="300" height="180">
<path d="M0 0 C2.06326977 0.08760589 4.1256716 0.19579273 6.1875 0.3125 C7.91033203 0.39951172 7.91033203 0.39951172 9.66796875 0.48828125 C14.53288454 1.23541369 17.70159971 3.1838056 20.6875 7.0625 C22.8510025 9.9298111 22.8510025 9.9298111 25 12 C25.1953125 15.2578125 25.1953125 15.2578125 25.125 19.125 C25.10695313 20.40632813 25.08890625 21.68765625 25.0703125 23.0078125 C25.04710937 23.99523437 25.02390625 24.98265625 25 26 C20.71 26.33 16.42 26.66 12 27 C12.495 28.98 12.495 28.98 13 31 C15.94729537 32.15811388 15.94729537 32.15811388 19 32 C24.16532304 42.94556549 26.39453573 49.88405512 23.046875 61.8984375 C21.75153059 64.49879306 20.6459985 64.93751412 18 66 C17.29875 66.53625 16.5975 67.0725 15.875 67.625 C14 69 14 69 12 69 C12 75.27 12 81.54 12 88 C12.66 88 13.32 88 14 88 C14 90.97 14 93.94 14 97 C14.33 88.75 14.66 80.5 15 72 C27 72 27 72 30 73 C30 73.66 30 74.32 30 75 C30.928125 74.7215625 30.928125 74.7215625 31.875 74.4375 C34 74 34 74 36 75 C36 74.34 36 73.68 36 73 C42.51409496 71.05052633 51.07338702 70.460762 57.1875 73.75 C60.6644289 76.53154312 61.72888298 78.35443754 62.44921875 82.7265625 C62.52785156 83.68304688 62.60648437 84.63953125 62.6875 85.625 C62.77386719 86.58664063 62.86023438 87.54828125 62.94921875 88.5390625 C63 91 63 91 62 93 C59.27734375 93.4140625 59.27734375 93.4140625 55.9375 93.625 C54.28041016 93.73714844 54.28041016 93.73714844 52.58984375 93.8515625 C51.73519531 93.90054688 50.88054687 93.94953125 50 94 C49.8046875 91.94921875 49.609375 89.8984375 49.4140625 87.84765625 C49.20910156 86.93306641 49.20910156 86.93306641 49 86 C48.34 85.67 47.68 85.34 47 85 C47.66 84.34 48.32 83.68 49 83 C47.35 83 45.7 83 44 83 C44.165 84.0725 44.33 85.145 44.5 86.25 C45 90 45 90 45 94 C46.32 94 47.64 94 49 94 C49.33 94.66 49.66 95.32 50 96 C51.485 96.495 51.485 96.495 53 97 C55.88535357 99.46103687 57.45712148 101.19985035 58 105 C58.99 104.67 59.98 104.34 61 104 C61.13277344 104.85464844 61.26554687 105.70929688 61.40234375 106.58984375 C61.57894531 107.69457031 61.75554687 108.79929687 61.9375 109.9375 C62.11152344 111.03964844 62.28554688 112.14179688 62.46484375 113.27734375 C62.71845136 115.90426929 62.71845136 115.90426929 64 117 C64.49677928 123.03066943 63.982072 128.30154299 62 134 C55.25 135.125 55.25 135.125 53 134 C52.67 134.99 52.34 135.98 52 137 C47.38 137 42.76 137 38 137 C37.67 136.34 37.34 135.68 37 135 C36.31897217 135.02618408 35.63794434 135.05236816 34.9362793 135.0793457 C31.85358711 135.18321531 28.77126241 135.24829317 25.6875 135.3125 C24.0797168 135.3753418 24.0797168 135.3753418 22.43945312 135.43945312 C21.41142578 135.45556641 20.38339844 135.47167969 19.32421875 135.48828125 C18.37635498 135.51446533 17.42849121 135.54064941 16.4519043 135.56762695 C14 135 14 135 12.21020508 132.64526367 C11.02894652 130.06327125 10.40035755 127.80250284 10 125 C9.67 125 9.34 125 9 125 C9.0928125 123.63875 9.0928125 123.63875 9.1875 122.25 C9.2775433 118.60210394 9.2775433 118.60210394 6 115 C5.67 121.27 5.34 127.54 5 134 C2.23382437 135.38308781 -0.01018 135.11210196 -3.1015625 135.09765625 C-4.31328125 135.09443359 -5.525 135.09121094 -6.7734375 135.08789062 C-8.04445312 135.07951172 -9.31546875 135.07113281 -10.625 135.0625 C-11.90375 135.05798828 -13.1825 135.05347656 -14.5 135.04882812 C-17.66671292 135.03701203 -20.83333356 135.02053815 -24 135 C-24 131.7 -24 128.4 -24 125 C-27.3 125 -30.6 125 -34 125 C-34.33 124.34 -34.66 123.68 -35 123 C-35.33 126.96 -35.66 130.92 -36 135 C-37.93875 135.185625 -39.8775 135.37125 -41.875 135.5625 C-42.96554688 135.66691406 -44.05609375 135.77132812 -45.1796875 135.87890625 C-48 136 -48 136 -50 135 C-50.433422 126.84524526 -49.29370226 119.82316305 -47 112 C-46.34 112 -45.68 112 -45 112 C-44.3183974 107.46996424 -43.81620242 103.2972085 -44.5625 98.75 C-45 95 -45 95 -44.12890625 92.84765625 C-42.55901993 88.88763159 -42.02406009 84.88320987 -41.375 80.6875 C-41.2409375 79.85154297 -41.106875 79.01558594 -40.96875 78.15429688 C-40.64065239 76.10368682 -40.31961819 74.05194879 -40 72 C-33.66666667 72 -27.33333333 72 -21 72 C-20.83395264 73.05912598 -20.83395264 73.05912598 -20.66455078 74.13964844 C-20.15820484 77.34422283 -19.64171783 80.54708237 -19.125 83.75 C-18.95097656 84.86117187 -18.77695313 85.97234375 -18.59765625 87.1171875 C-18.42363281 88.18710938 -18.24960938 89.25703125 -18.0703125 90.359375 C-17.91320801 91.34389648 -17.75610352 92.32841797 -17.59423828 93.34277344 C-17.03031543 95.86443995 -16.20255077 97.73403657 -15 100 C-14.75363388 102.70017269 -14.90934334 105.28030006 -15 108 C-14.34 108 -13.68 108 -13 108 C-13 111.3 -13 114.6 -13 118 C-12.01 118 -11.02 118 -10 118 C-10.01571045 116.12296387 -10.01571045 116.12296387 -10.03173828 114.20800781 C-10.06794765 109.5638312 -10.09090396 104.91966707 -10.10986328 100.27539062 C-10.1199187 98.26560365 -10.13356485 96.2558313 -10.15087891 94.24609375 C-10.17514724 91.35673412 -10.18648771 88.46756798 -10.1953125 85.578125 C-10.20563507 84.68007141 -10.21595764 83.78201782 -10.22659302 82.85675049 C-10.22681961 81.5958963 -10.22681961 81.5958963 -10.22705078 80.30957031 C-10.231492 79.57232727 -10.23593323 78.83508423 -10.24050903 78.07550049 C-10 76 -10 76 -8 72 C-2.06 72 3.88 72 10 72 C10 71.67 10 71.34 10 71 C9.31292969 70.96261719 8.62585938 70.92523438 7.91796875 70.88671875 C7.01691406 70.82097656 6.11585938 70.75523438 5.1875 70.6875 C4.29417969 70.62949219 3.40085938 70.57148437 2.48046875 70.51171875 C-0.34379918 69.9290745 -1.33487329 69.3289646 -3 67 C-3 66.01 -3 65.02 -3 64 C-5.4390706 61.79857668 -5.4390706 61.79857668 -8 60 C-8.66 60.66 -9.32 61.32 -10 62 C-10 56.06 -10 50.12 -10 44 C-9.34 44.99 -8.68 45.98 -8 47 C-7.34 46.67 -6.68 46.34 -6 46 C-1.26002164 45.52600216 1.68423874 45.28714643 5.5 48.3125 C8 51 8 51 8 54 C7.34 54 6.68 54 6 54 C5.34 53.01 4.68 52.02 4 51 C4 52.32 4 53.64 4 55 C6.64 55 9.28 55 12 55 C11.60304363 53.37007308 11.18167507 51.74607765 10.75 50.125 C10.40195313 48.76761719 10.40195313 48.76761719 10.046875 47.3828125 C8.78343338 44.50706852 7.79155672 44.21567793 5 43 C4.25 40.375 4.25 40.375 4 38 C3.236875 38.103125 2.47375 38.20625 1.6875 38.3125 C0.800625 38.209375 -0.08625 38.10625 -1 38 C-2.97506165 35.39009711 -3.9656701 33.10298971 -5 30 C-7.01508358 29.26676204 -7.01508358 29.26676204 -9 29 C-8.67 28.34 -8.34 27.68 -8 27 C-8.66 26.34 -9.32 25.68 -10 25 C-10.56520003 22.34462628 -10.73788198 19.70855287 -11 17 C-11.11069824 17.66418945 -11.22139648 18.32837891 -11.33544922 19.01269531 C-13.9296875 34.578125 -13.9296875 34.578125 -14.46630859 37.78808594 C-14.82241969 39.93126871 -15.17430155 42.07515846 -15.52197266 44.21972656 C-16.40098125 49.61176583 -17.35437148 54.93646253 -18.625 60.25 C-18.88539063 61.34828125 -19.14578125 62.4465625 -19.4140625 63.578125 C-19.60742188 64.37734375 -19.80078125 65.1765625 -20 66 C-26 66 -32 66 -38 66 C-38.13277344 64.92878906 -38.26554688 63.85757813 -38.40234375 62.75390625 C-38.5805056 61.35674231 -38.75890319 59.95960841 -38.9375 58.5625 C-39.02451172 57.85544922 -39.11152344 57.14839844 -39.20117188 56.41992188 C-39.38216191 52.91182032 -39.38216191 52.91182032 -41 50 C-41.07179964 48.48071962 -41.08392007 46.95832518 -41.0625 45.4375 C-41.05347656 44.61121094 -41.04445312 43.78492188 -41.03515625 42.93359375 C-41.02355469 42.29550781 -41.01195312 41.65742187 -41 41 C-40.01 40.505 -40.01 40.505 -39 40 C-39.99 40 -40.98 40 -42 40 C-42.33 40.66 -42.66 41.32 -43 42 C-44.69655602 34.19254802 -45.31263003 26.46549793 -45.6875 18.5 C-45.73575928 17.53239746 -45.78401855 16.56479492 -45.83374023 15.56787109 C-45.87184814 14.64828613 -45.90995605 13.72870117 -45.94921875 12.78125 C-45.98362061 11.95689453 -46.01802246 11.13253906 -46.0534668 10.28320312 C-46 8 -46 8 -45 4 C-41.04 4 -37.08 4 -33 4 C-32.67 5.32 -32.34 6.64 -32 8 C-31.34 6.68 -30.68 5.36 -30 4 C-29.34 8.95 -28.68 13.9 -28 19 C-26.53867783 16.07735566 -25.65900754 14.07536854 -25 11 C-24.01 11 -23.02 11 -22 11 C-22.33 8.69 -22.66 6.38 -23 4 C-20.70954632 3.77872902 -18.41755236 3.5733496 -16.125 3.375 C-14.84882813 3.25898438 -13.57265625 3.14296875 -12.2578125 3.0234375 C-11.18273437 3.01570313 -10.10765625 3.00796875 -9 3 C-6.64046906 5.35953094 -6.50858587 6.77895617 -6 10 C-5.54625 9.34 -5.0925 8.68 -4.625 8 C-4.08875 7.34 -3.5525 6.68 -3 6 C-2.34 6 -1.68 6 -1 6 C-1.495 4.02 -1.495 4.02 -2 2 C-1.34 2 -0.68 2 0 2 C0 1.34 0 0.68 0 0 Z M-45 10 C-44 12 -44 12 -44 12 Z M-8 11 C-9.26237731 13.52475462 -9.09856404 15.31200466 -9.0625 18.125 C-9.05347656 19.03507812 -9.04445312 19.94515625 -9.03515625 20.8828125 C-9.02355469 21.58148438 -9.01195312 22.28015625 -9 23 C-8.67 23 -8.34 23 -8 23 C-7.67 19.04 -7.34 15.08 -7 11 C-7.33 11 -7.66 11 -8 11 Z M-23 12 C-24.35618499 13.12534105 -24.35618499 13.12534105 -24.0625 16.0625 C-24.041875 17.031875 -24.02125 18.00125 -24 19 C-22.87483915 17.16715557 -22.87483915 17.16715557 -22 15 C-22.33 14.01 -22.66 13.02 -23 12 Z M-45 13 C-44 16 -44 16 -44 16 Z M5 14 C4.67 14.99 4.34 15.98 4 17 C4.66 17 5.32 17 6 17 C6 18.65 6 20.3 6 22 C6.33 22 6.66 22 7 22 C7 20.35 7 18.7 7 17 C8.65 17 10.3 17 12 17 C12 16.01 12 15.02 12 14 C9.69 14 7.38 14 5 14 Z M-31 16 C-30 19 -30 19 -30 19 Z M12 18 C13 20 13 20 13 20 Z M-25 19 C-25.69159401 20.84725052 -25.69159401 20.84725052 -26 23 C-25.01 24.485 -25.01 24.485 -24 26 C-23.67 24.02 -23.34 22.04 -23 20 C-23.66 19.67 -24.32 19.34 -25 19 Z M-31 20 C-30 22 -30 22 -30 22 Z M6 23 C6.33 23.66 6.66 24.32 7 25 C7.33 24.34 7.66 23.68 8 23 C7.34 23 6.68 23 6 23 Z M-30 24 C-29 26 -29 26 -29 26 Z M-43 25 C-43 26.32 -43 27.64 -43 29 C-42.34 28.67 -41.68 28.34 -41 28 C-41.66 27.01 -42.32 26.02 -43 25 Z M-29 28 C-29 29.65 -29 31.3 -29 33 C-28.67 33 -28.34 33 -28 33 C-28 31.35 -28 29.7 -28 28 C-28.33 28 -28.66 28 -29 28 Z M-26 31 C-25 34 -25 34 -25 34 Z M-41 34 C-40 37 -40 37 -40 37 Z M-29 34 C-28.67 35.65 -28.34 37.3 -28 39 C-27.34 38.67 -26.68 38.34 -26 38 C-26.33 36.68 -26.66 35.36 -27 34 C-27.66 34 -28.32 34 -29 34 Z M-39 47 C-38 50 -38 50 -38 50 Z M11 47 C12 49 12 49 12 49 Z M-38 52 C-37 56 -37 56 -37 56 Z M-37 58 C-36 61 -36 61 -36 61 Z M26 73 C26 92.8 26 112.6 26 133 C26.33 133 26.66 133 27 133 C27 113.2 27 93.4 27 73 C26.67 73 26.34 73 26 73 Z M8 75 C9 77 9 77 9 77 Z M32 76 C32.33 76.66 32.66 77.32 33 78 C33.33 77.34 33.66 76.68 34 76 C33.34 76 32.68 76 32 76 Z M31 78 C32 80 32 80 32 80 Z M-40 80 C-39 83 -39 83 -39 83 Z M30 80 C31 83 31 83 31 83 Z M-41 84 C-41 85.65 -41 87.3 -41 89 C-40.67 89 -40.34 89 -40 89 C-40 87.35 -40 85.7 -40 84 C-40.33 84 -40.66 84 -41 84 Z M42 86 C43 90 43 90 43 90 Z M-42 90 C-42 91.65 -42 93.3 -42 95 C-41.67 95 -41.34 95 -41 95 C-41 93.35 -41 91.7 -41 90 C-41.33 90 -41.66 90 -42 90 Z M-31 92 C-30 95 -30 95 -30 95 Z M30 93 C31 95 31 95 31 95 Z M-43 96 C-43 97.65 -43 99.3 -43 101 C-42.67 101 -42.34 101 -42 101 C-42 99.35 -42 97.7 -42 96 C-42.33 96 -42.66 96 -43 96 Z M3 96 C3 108.21 3 120.42 3 133 C3.33 133 3.66 133 4 133 C4.16821435 128.53450019 4.32870773 124.06880839 4.48217773 119.6027832 C4.5354146 118.08480439 4.59072853 116.5668969 4.64819336 115.04907227 C4.73061847 112.86229831 4.80547122 110.67537334 4.87890625 108.48828125 C4.9260376 107.17384033 4.97316895 105.85939941 5.02172852 104.50512695 C5.00297596 101.48006575 4.72984472 98.92183626 4 96 C3.67 96 3.34 96 3 96 Z M-31 97 C-31.33 98.32 -31.66 99.64 -32 101 C-31.34 100.67 -30.68 100.34 -30 100 C-30.33 99.01 -30.66 98.02 -31 97 Z M32 97 C33 99 33 99 33 99 Z M-29 100 C-28 102 -28 102 -28 102 Z M-17 100 C-16 102 -16 102 -16 102 Z M28 102 C28 104.64 28 107.28 28 110 C28.88751953 110.02126953 28.88751953 110.02126953 29.79296875 110.04296875 C34.04092453 110.29937065 36.45672667 110.61518139 40 113.125 C42.34285287 116.492851 42.76130833 118.94224163 43 123 C44.65 123 46.3 123 48 123 C47.88512252 121.41590006 47.75765492 119.83271037 47.625 118.25 C47.55539062 117.36828125 47.48578125 116.4865625 47.4140625 115.578125 C46.99177193 112.9487686 46.42949231 111.23662062 45 109 C44.01 108.34 43.02 107.68 42 107 C42 107.66 42 108.32 42 109 C41.01 109 40.02 109 39 109 C39.33 108.01 39.66 107.02 40 106 C39.34 105.34 38.68 104.68 38 104 C37.67 103.34 37.34 102.68 37 102 C33.75266665 100.7242619 31.32967418 101.16758145 28 102 Z M-29 103 C-30.35618499 104.12534105 -30.35618499 104.12534105 -30.0625 107.0625 C-30.041875 108.031875 -30.02125 109.00125 -30 110 C-29.01 110 -28.02 110 -27 110 C-27.33 107.69 -27.66 105.38 -28 103 C-28.33 103 -28.66 103 -29 103 Z M5 104 C6 106 6 106 6 106 Z M-33 107 C-32 110 -32 110 -32 110 Z M-15 111 C-14 113 -14 113 -14 113 Z M-30 112 C-26 113 -26 113 -26 113 Z M7 112 C8 115 8 115 8 115 Z M33 114 C33 114.33 33 114.66 33 115 C35.64 115 38.28 115 41 115 C41 114.67 41 114.34 41 114 C38.36 114 35.72 114 33 114 Z M49 117 C49 118.65 49 120.3 49 122 C49.33 122 49.66 122 50 122 C50 120.35 50 118.7 50 117 C49.67 117 49.34 117 49 117 Z M-47 119 C-47 120.65 -47 122.3 -47 124 C-46.67 124 -46.34 124 -46 124 C-46 122.35 -46 120.7 -46 119 C-46.33 119 -46.66 119 -47 119 Z M29 119 C28.83322718 122.41656024 28.83322718 122.41656024 29 126 C29.66 126.66 30.32 127.32 31 128 C30.67 125.03 30.34 122.06 30 119 C29.67 119 29.34 119 29 119 Z M-48 124 C-47 126 -47 126 -47 126 Z M43 124 C43 124.33 43 124.66 43 125 C44.65 125 46.3 125 48 125 C48 124.67 48 124.34 48 124 C46.35 124 44.7 124 43 124 Z M62 124 C63 127 63 127 63 127 Z M61 127 C60.67 128.32 60.34 129.64 60 131 C60.66 129.68 61.32 128.36 62 127 C61.67 127 61.34 127 61 127 Z " fill="#FCFCFC" transform="translate(236,26)"/>
<path d="M0 0 C7.6139197 -0.36904203 12.38399012 1.38729733 18.875 5.2265625 C20.6384375 6.0309375 20.6384375 6.0309375 22.4375 6.8515625 C24.875 8.2265625 24.875 8.2265625 25.875 11.2265625 C27.84304998 12.38024697 29.79522552 13.1975536 31.9375 13.9765625 C34.76382331 15.79999689 35.51952352 18.20754671 36.875 21.2265625 C37.865 22.7115625 37.865 22.7115625 38.875 24.2265625 C39.2298954 26.22284914 39.56078929 28.22346921 39.875 30.2265625 C40.51597297 32.23494446 41.18399447 34.23484068 41.875 36.2265625 C42.56605506 38.55358463 43.22044973 40.88888296 43.875 43.2265625 C44.205 43.2265625 44.535 43.2265625 44.875 43.2265625 C44.875 62.6965625 44.875 82.1665625 44.875 102.2265625 C43.39 102.7215625 43.39 102.7215625 41.875 103.2265625 C40.41206037 105.54525454 40.41206037 105.54525454 39.1875 108.2890625 C38.75050781 109.20816406 38.31351562 110.12726563 37.86328125 111.07421875 C37.53714844 111.78449219 37.21101563 112.49476563 36.875 113.2265625 C37.205 112.8965625 37.535 112.5665625 37.875 112.2265625 C38.205 112.2265625 38.535 112.2265625 38.875 112.2265625 C39.3125 114.2890625 39.3125 114.2890625 38.875 117.2265625 C35.76875244 121.29121151 32.92018292 124.13680299 27.875 125.2265625 C26.885 125.8865625 25.895 126.5465625 24.875 127.2265625 C24.50871323 129.22079045 24.17368656 131.22109561 23.875 133.2265625 C11.44081236 139.44365632 -14.3987899 138.49672775 -27.4375 134.3515625 C-31.92712014 132.62232222 -31.92712014 132.62232222 -33.125 130.2265625 C-34.259375 129.9171875 -35.39375 129.6078125 -36.5625 129.2890625 C-40.125 128.2265625 -40.125 128.2265625 -42.125 125.2265625 C-44.17503955 124.03423637 -44.17503955 124.03423637 -46.125 123.2265625 C-46.125 122.5665625 -46.125 121.9065625 -46.125 121.2265625 C-47.5171875 119.89625 -47.5171875 119.89625 -48.9375 118.5390625 C-52.22281726 115.39354597 -53.5936702 112.4802564 -55.125 108.2265625 C-55.785 108.2265625 -56.445 108.2265625 -57.125 108.2265625 C-57.24875 107.0715625 -57.3725 105.9165625 -57.5 104.7265625 C-58.04400232 100.42817796 -58.88570638 96.38184111 -60.125 92.2265625 C-60.785 91.8965625 -61.445 91.5665625 -62.125 91.2265625 C-62.125 76.0465625 -62.125 60.8665625 -62.125 45.2265625 C-61.135 45.2265625 -60.145 45.2265625 -59.125 45.2265625 C-58.78996236 42.93514438 -58.45701958 40.64341987 -58.125 38.3515625 C-57.939375 37.07539062 -57.75375 35.79921875 -57.5625 34.484375 C-57.08063408 31.44403782 -57.08063408 31.44403782 -57.125 29.2265625 C-56.135 29.2265625 -55.145 29.2265625 -54.125 29.2265625 C-53.83625 28.2778125 -53.5475 27.3290625 -53.25 26.3515625 C-52.125 23.2265625 -52.125 23.2265625 -50.125 21.2265625 C-50.2075 20.4428125 -50.29 19.6590625 -50.375 18.8515625 C-50.2925 17.9853125 -50.21 17.1190625 -50.125 16.2265625 C-47.00892691 13.74786799 -43.72353757 11.90588003 -40.125 10.2265625 C-39.465 9.8759375 -38.805 9.5253125 -38.125 9.1640625 C-36.125 8.2265625 -36.125 8.2265625 -33.9375 7.7265625 C-33.339375 7.5615625 -32.74125 7.3965625 -32.125 7.2265625 C-31.795 6.5665625 -31.465 5.9065625 -31.125 5.2265625 C-20.80596084 1.57075317 -10.82570686 0.78486375 0 0 Z M0.875 1.2265625 C0.875 1.5565625 0.875 1.8865625 0.875 2.2265625 C2.525 2.2265625 4.175 2.2265625 5.875 2.2265625 C5.875 1.8965625 5.875 1.5665625 5.875 1.2265625 C4.225 1.2265625 2.575 1.2265625 0.875 1.2265625 Z M-15.125 7.2265625 C-14.795 22.4065625 -14.465 37.5865625 -14.125 53.2265625 C-12.805 53.5565625 -11.485 53.8865625 -10.125 54.2265625 C-6.62563137 51.98696658 -5.57322112 47.95055965 -4.125 44.2265625 C-4.125 43.8965625 -4.125 43.5665625 -4.125 43.2265625 C-3.67374756 42.63536621 -3.22249512 42.04416992 -2.75756836 41.43505859 C-1.17924138 39.29993884 -0.10229684 37.30028687 0.99609375 34.890625 C1.37443359 34.07335937 1.75277344 33.25609375 2.14257812 32.4140625 C2.91890067 30.71366988 3.694945 29.0131502 4.47070312 27.3125 C6.62747571 22.65475004 8.88793478 18.40437126 11.875 14.2265625 C11.03796066 11.97696369 11.03796066 11.97696369 8.50390625 11.375 C1.75363807 9.67238459 -4.16666409 8.91957709 -11.125 9.2265625 C-11.125 13.1865625 -11.125 17.1465625 -11.125 21.2265625 C-11.785 21.2265625 -12.445 21.2265625 -13.125 21.2265625 C-13.125 16.9365625 -13.125 12.6465625 -13.125 8.2265625 C-9.165 8.2265625 -5.205 8.2265625 -1.125 8.2265625 C-1.125 7.8965625 -1.125 7.5665625 -1.125 7.2265625 C-5.745 7.2265625 -10.365 7.2265625 -15.125 7.2265625 Z M-21.125 8.2265625 C-21.125 9.2165625 -21.125 10.2065625 -21.125 11.2265625 C-21.73988281 11.19175781 -22.35476562 11.15695313 -22.98828125 11.12109375 C-24.20064453 11.08048828 -24.20064453 11.08048828 -25.4375 11.0390625 C-26.23800781 11.00425781 -27.03851563 10.96945313 -27.86328125 10.93359375 C-30.65016754 11.29458938 -31.38393894 12.08132655 -33.125 14.2265625 C-33.681875 14.9071875 -34.23875 15.5878125 -34.8125 16.2890625 C-36.31194938 18.11250112 -36.31194938 18.11250112 -36.125 20.2265625 C-36.785 20.2265625 -37.445 20.2265625 -38.125 20.2265625 C-38.125 20.8865625 -38.125 21.5465625 -38.125 22.2265625 C-39.115 22.2265625 -40.105 22.2265625 -41.125 22.2265625 C-39.99650068 26.13290629 -39.03764186 28.44055724 -36.125 31.2265625 C-35.4375 33.4140625 -35.4375 33.4140625 -35.125 35.2265625 C-34.465 35.2265625 -33.805 35.2265625 -33.125 35.2265625 C-33.455 36.2165625 -33.785 37.2065625 -34.125 38.2265625 C-33.67125 38.6596875 -33.2175 39.0928125 -32.75 39.5390625 C-29.34203212 43.07810607 -28.2682478 46.69108891 -26.90625 51.265625 C-26.30173144 53.41544285 -26.30173144 53.41544285 -24.125 54.2265625 C-22.145 53.7315625 -22.145 53.7315625 -20.125 53.2265625 C-20.125 38.3765625 -20.125 23.5265625 -20.125 8.2265625 C-20.455 8.2265625 -20.785 8.2265625 -21.125 8.2265625 Z M18.875 15.2265625 C19.205 15.8865625 19.535 16.5465625 19.875 17.2265625 C20.205 16.5665625 20.535 15.9065625 20.875 15.2265625 C20.215 15.2265625 19.555 15.2265625 18.875 15.2265625 Z M-39.125 17.2265625 C-39.785 18.5465625 -40.445 19.8665625 -41.125 21.2265625 C-40.135 20.5665625 -39.145 19.9065625 -38.125 19.2265625 C-38.455 18.5665625 -38.785 17.9065625 -39.125 17.2265625 Z M15.875 17.2265625 C16.875 19.2265625 16.875 19.2265625 16.875 19.2265625 Z M18.875 18.2265625 C18.875 19.2165625 18.875 20.2065625 18.875 21.2265625 C17.555 21.2265625 16.235 21.2265625 14.875 21.2265625 C14.875 26.5065625 14.875 31.7865625 14.875 37.2265625 C11.905 36.8965625 8.935 36.5665625 5.875 36.2265625 C5.99875 37.5465625 6.1225 38.8665625 6.25 40.2265625 C6.30451743 45.95997903 3.62213724 49.13370725 -0.125 53.2265625 C-0.785 52.5665625 -1.445 51.9065625 -2.125 51.2265625 C-3.32338209 53.55510713 -3.32338209 53.55510713 -4.125 56.2265625 C-3.465 57.2165625 -2.805 58.2065625 -2.125 59.2265625 C1.63989649 58.01725408 1.63989649 58.01725408 4.3125 55.2265625 C6.43894033 52.50471887 8.62466685 52.26666911 11.875 51.2265625 C13.5824998 49.94593765 15.24143049 48.60024595 16.875 47.2265625 C19.45657665 45.39777524 22.05994259 43.60331856 24.66796875 41.8125 C26.93752748 40.27176605 26.93752748 40.27176605 28.875 38.2265625 C29.390625 37.8140625 29.90625 37.4015625 30.4375 36.9765625 C32.50272273 34.46237831 32.74114509 32.43908024 32.875 29.2265625 C31.60443475 27.53924206 31.60443475 27.53924206 29.875 26.2265625 C28.6875 24.0390625 28.6875 24.0390625 27.875 22.2265625 C26.555 22.5565625 25.235 22.8865625 23.875 23.2265625 C23.545 21.9065625 23.215 20.5865625 22.875 19.2265625 C21.555 18.8965625 20.235 18.5665625 18.875 18.2265625 Z M12.875 22.2265625 C12.545 23.5465625 12.215 24.8665625 11.875 26.2265625 C12.535 25.8965625 13.195 25.5665625 13.875 25.2265625 C13.545 24.2365625 13.215 23.2465625 12.875 22.2265625 Z M10.875 26.2265625 C11.875 28.2265625 11.875 28.2265625 11.875 28.2265625 Z M-46.125 27.2265625 C-46.125 27.8865625 -46.125 28.5465625 -46.125 29.2265625 C-47.115 29.2265625 -48.105 29.2265625 -49.125 29.2265625 C-49.25777344 29.82984375 -49.39054687 30.433125 -49.52734375 31.0546875 C-49.70394531 31.85390625 -49.88054688 32.653125 -50.0625 33.4765625 C-50.23652344 34.26546875 -50.41054688 35.054375 -50.58984375 35.8671875 C-50.92920632 37.36335534 -51.2935462 38.85425179 -51.69140625 40.3359375 C-52.2367678 42.39062575 -52.2367678 42.39062575 -52.125 45.2265625 C-50.805 45.2265625 -49.485 45.2265625 -48.125 45.2265625 C-48.021875 45.8659375 -47.91875 46.5053125 -47.8125 47.1640625 C-47.4721875 48.185 -47.4721875 48.185 -47.125 49.2265625 C-46.135 49.5565625 -45.145 49.8865625 -44.125 50.2265625 C-43.795 51.2165625 -43.465 52.2065625 -43.125 53.2265625 C-41.37095045 54.4631599 -41.37095045 54.4631599 -39.25 55.4140625 C-38.55132812 55.75824219 -37.85265625 56.10242188 -37.1328125 56.45703125 C-35.0164885 57.40550411 -35.0164885 57.40550411 -32.125 57.2265625 C-31.795 56.2365625 -31.465 55.2465625 -31.125 54.2265625 C-32.40508338 51.66639575 -33.64124195 49.67310839 -35.75 47.7265625 C-37.5875855 45.72192377 -37.64073591 43.85542472 -38.125 41.2265625 C-38.785 40.8965625 -39.445 40.5665625 -40.125 40.2265625 C-40.75 37.6640625 -40.75 37.6640625 -41.125 35.2265625 C-41.455 35.8865625 -41.785 36.5465625 -42.125 37.2265625 C-42.785 37.2265625 -43.445 37.2265625 -44.125 37.2265625 C-45.25 32.4765625 -45.25 32.4765625 -44.125 30.2265625 C-44.785 29.2365625 -45.445 28.2465625 -46.125 27.2265625 Z M31.875 42.2265625 C31.875 42.8865625 31.875 43.5465625 31.875 44.2265625 C30.9778125 44.319375 30.9778125 44.319375 30.0625 44.4140625 C27.67166925 45.02920053 27.67166925 45.02920053 26.6875 47.4140625 C24.32912927 51.07360328 21.42056794 52.66871521 17.73828125 54.89453125 C17.12339844 55.33410156 16.50851563 55.77367187 15.875 56.2265625 C15.875 56.8865625 15.875 57.5465625 15.875 58.2265625 C14.555 57.8965625 13.235 57.5665625 11.875 57.2265625 C11.545 57.8865625 11.215 58.5465625 10.875 59.2265625 C11.205 59.8865625 11.535 60.5465625 11.875 61.2265625 C10.225 61.5565625 8.575 61.8865625 6.875 62.2265625 C6.875 62.5565625 6.875 62.8865625 6.875 63.2265625 C21.21564757 64.21062442 21.21564757 64.21062442 34.875 61.2265625 C34.875 55.2865625 34.875 49.3465625 34.875 43.2265625 C33.885 42.8965625 32.895 42.5665625 31.875 42.2265625 Z M35.875 43.2265625 C35.875 49.1665625 35.875 55.1065625 35.875 61.2265625 C36.205 61.2265625 36.535 61.2265625 36.875 61.2265625 C36.875 55.2865625 36.875 49.3465625 36.875 43.2265625 C36.545 43.2265625 36.215 43.2265625 35.875 43.2265625 Z M-53.125 51.2265625 C-53.125 55.8465625 -53.125 60.4665625 -53.125 65.2265625 C-52.795 65.2265625 -52.465 65.2265625 -52.125 65.2265625 C-51.795 60.9365625 -51.465 56.6465625 -51.125 52.2265625 C-51.785 51.8965625 -52.445 51.5665625 -53.125 51.2265625 Z M-50.125 56.2265625 C-50.125 59.1965625 -50.125 62.1665625 -50.125 65.2265625 C-45.69894994 66.67181134 -45.69894994 66.67181134 -41.125 67.2265625 C-40.795 65.2465625 -40.465 63.2665625 -40.125 61.2265625 C-41.218125 60.7728125 -42.31125 60.3190625 -43.4375 59.8515625 C-45.94637765 58.81014159 -47.82217067 57.76178206 -50.125 56.2265625 Z M-22.125 59.2265625 C-22.125 59.5565625 -22.125 59.8865625 -22.125 60.2265625 C-20.475 60.2265625 -18.825 60.2265625 -17.125 60.2265625 C-17.125 59.8965625 -17.125 59.5665625 -17.125 59.2265625 C-18.775 59.2265625 -20.425 59.2265625 -22.125 59.2265625 Z M-25.125 60.2265625 C-25.125 61.2165625 -25.125 62.2065625 -25.125 63.2265625 C-25.125 63.8865625 -25.125 64.5465625 -25.125 65.2265625 C-26.445 65.2265625 -27.765 65.2265625 -29.125 65.2265625 C-29.785 66.8765625 -30.445 68.5265625 -31.125 70.2265625 C-32.115 69.5665625 -33.105 68.9065625 -34.125 68.2265625 C-34.455 69.5465625 -34.785 70.8665625 -35.125 72.2265625 C-34.465 72.2265625 -33.805 72.2265625 -33.125 72.2265625 C-33.20878906 72.99742188 -33.29257812 73.76828125 -33.37890625 74.5625 C-33.48074219 75.56539062 -33.58257812 76.56828125 -33.6875 77.6015625 C-33.79191406 78.59929687 -33.89632812 79.59703125 -34.00390625 80.625 C-34.33644708 83.2105995 -34.33644708 83.2105995 -33.125 85.2265625 C-28.81533085 85.39231901 -25.84569453 85.45897922 -22.125 83.2265625 C-20.8565625 82.7625 -20.8565625 82.7625 -19.5625 82.2890625 C-17.12777009 81.40454102 -17.12777009 81.40454102 -15.6875 79.7890625 C-13.50260868 77.60417118 -10.87201464 76.60006982 -8.125 75.2265625 C-7.795 74.5665625 -7.465 73.9065625 -7.125 73.2265625 C-6.465 72.8965625 -5.805 72.5665625 -5.125 72.2265625 C-4.80601498 69.27595107 -4.6816419 67.78557924 -6.5625 65.4140625 C-10.36869483 63.65021612 -13.99678296 63.98839613 -18.125 64.2265625 C-18.455 63.2365625 -18.785 62.2465625 -19.125 61.2265625 C-22.095 60.7315625 -22.095 60.7315625 -25.125 60.2265625 Z M-29.125 62.2265625 C-29.455 62.8865625 -29.785 63.5465625 -30.125 64.2265625 C-29.135 63.8965625 -28.145 63.5665625 -27.125 63.2265625 C-27.785 62.8965625 -28.445 62.5665625 -29.125 62.2265625 Z M7.875 64.2265625 C7.875 64.5565625 7.875 64.8865625 7.875 65.2265625 C10.845 65.2265625 13.815 65.2265625 16.875 65.2265625 C16.875 64.8965625 16.875 64.5665625 16.875 64.2265625 C13.905 64.2265625 10.935 64.2265625 7.875 64.2265625 Z M34.875 67.2265625 C35.205 72.1765625 35.535 77.1265625 35.875 82.2265625 C36.205 82.2265625 36.535 82.2265625 36.875 82.2265625 C36.875 77.2765625 36.875 72.3265625 36.875 67.2265625 C36.215 67.2265625 35.555 67.2265625 34.875 67.2265625 Z M31.875 68.2265625 C31.875 72.1865625 31.875 76.1465625 31.875 80.2265625 C32.205 80.2265625 32.535 80.2265625 32.875 80.2265625 C32.875 76.2665625 32.875 72.3065625 32.875 68.2265625 C32.545 68.2265625 32.215 68.2265625 31.875 68.2265625 Z M28.875 69.2265625 C29.205 69.8865625 29.535 70.5465625 29.875 71.2265625 C30.205 70.5665625 30.535 69.9065625 30.875 69.2265625 C30.215 69.2265625 29.555 69.2265625 28.875 69.2265625 Z M33.875 69.2265625 C33.875 71.8665625 33.875 74.5065625 33.875 77.2265625 C34.205 77.2265625 34.535 77.2265625 34.875 77.2265625 C34.875 74.5865625 34.875 71.9465625 34.875 69.2265625 C34.545 69.2265625 34.215 69.2265625 33.875 69.2265625 Z M5.875 73.2265625 C8.515 72.8965625 11.155 72.5665625 13.875 72.2265625 C13.875 71.8965625 13.875 71.5665625 13.875 71.2265625 C9.38195418 70.80152804 9.38195418 70.80152804 5.875 73.2265625 Z M17.875 72.2265625 C21.875 73.2265625 21.875 73.2265625 21.875 73.2265625 Z M-53.125 73.2265625 C-53.125 75.5365625 -53.125 77.8465625 -53.125 80.2265625 C-52.795 80.2265625 -52.465 80.2265625 -52.125 80.2265625 C-52.125 77.9165625 -52.125 75.6065625 -52.125 73.2265625 C-52.455 73.2265625 -52.785 73.2265625 -53.125 73.2265625 Z M-51.125 73.2265625 C-51.125 75.5365625 -51.125 77.8465625 -51.125 80.2265625 C-47.825 79.5665625 -44.525 78.9065625 -41.125 78.2265625 C-41.125 77.2365625 -41.125 76.2465625 -41.125 75.2265625 C-44.425 74.5665625 -47.725 73.9065625 -51.125 73.2265625 Z M-35.125 74.2265625 C-35.125 77.2265625 -35.125 77.2265625 -35.125 77.2265625 Z M0.875 74.2265625 C0.875 74.8865625 0.875 75.5465625 0.875 76.2265625 C0.33875 76.2884375 -0.1975 76.3503125 -0.75 76.4140625 C-4.97301764 77.85877906 -8.01264748 81.11420998 -11.125 84.2265625 C-12.79166667 84.89322917 -14.45833333 85.55989583 -16.125 86.2265625 C-16.785 86.8865625 -17.445 87.5465625 -18.125 88.2265625 C-15.155 88.7215625 -15.155 88.7215625 -12.125 89.2265625 C-12.125 89.8865625 -12.125 90.5465625 -12.125 91.2265625 C-8.30834214 91.2265625 -6.14976525 91.13652003 -3.2421875 88.5546875 C-0.69209534 85.61821774 1.62150565 82.58303893 3.875 79.4140625 C6.57814615 76.4574964 9.13157791 75.59435134 12.875 74.2265625 C9.08140675 72.32976587 4.83104392 73.00931822 0.875 74.2265625 Z M20.875 79.2265625 C20.545 79.8865625 20.215 80.5465625 19.875 81.2265625 C22.845 81.2265625 25.815 81.2265625 28.875 81.2265625 C28.875 80.8965625 28.875 80.5665625 28.875 80.2265625 C26.235 79.8965625 23.595 79.5665625 20.875 79.2265625 Z M27.875 82.2265625 C31.875 83.2265625 31.875 83.2265625 31.875 83.2265625 Z M9.875 84.2265625 C9.70818891 87.14308424 9.70818891 87.14308424 9.875 90.2265625 C11.67209564 92.44527243 11.67209564 92.44527243 14.12158203 92.45361328 C15.48839111 92.43790283 15.48839111 92.43790283 16.8828125 92.421875 C17.86894531 92.41542969 18.85507813 92.40898438 19.87109375 92.40234375 C20.90363281 92.38558594 21.93617187 92.36882812 23 92.3515625 C24.04027344 92.34253906 25.08054687 92.33351563 26.15234375 92.32421875 C28.72679092 92.30059997 31.30078212 92.26766399 33.875 92.2265625 C33.875 93.8765625 33.875 95.5265625 33.875 97.2265625 C34.865 96.8965625 35.855 96.5665625 36.875 96.2265625 C36.875 94.2465625 36.875 92.2665625 36.875 90.2265625 C35.885 90.2265625 34.895 90.2265625 33.875 90.2265625 C32.4269312 89.82542753 30.99037495 89.38202152 29.5625 88.9140625 C23.09758468 86.90275551 16.50460974 85.5735005 9.875 84.2265625 Z M-53.125 89.2265625 C-52.125 93.2265625 -52.125 93.2265625 -52.125 93.2265625 Z M-48.125 91.2265625 C-48.125 91.8865625 -48.125 92.5465625 -48.125 93.2265625 C-46.39755984 93.87699969 -44.6679631 94.52171094 -42.9375 95.1640625 C-41.97457031 95.52371094 -41.01164062 95.88335937 -40.01953125 96.25390625 C-37.3881722 97.13812812 -34.85605092 97.75224836 -32.125 98.2265625 C-32.78923207 96.18772362 -32.78923207 96.18772362 -34.125 94.2265625 C-36.31041552 93.5272111 -36.31041552 93.5272111 -38.75 93.4765625 C-39.97589844 93.39148438 -39.97589844 93.39148438 -41.2265625 93.3046875 C-41.85304688 93.27890625 -42.47953125 93.253125 -43.125 93.2265625 C-43.125 92.5665625 -43.125 91.9065625 -43.125 91.2265625 C-44.775 91.2265625 -46.425 91.2265625 -48.125 91.2265625 Z M-31.125 91.2265625 C-31.125 91.5565625 -31.125 91.8865625 -31.125 92.2265625 C-28.20847826 92.39337359 -28.20847826 92.39337359 -25.125 92.2265625 C-24.465 91.5665625 -23.805 90.9065625 -23.125 90.2265625 C-25.96467231 90.2265625 -28.36235711 90.62923431 -31.125 91.2265625 Z M-50.125 93.2265625 C-50.455 93.8865625 -50.785 94.5465625 -51.125 95.2265625 C-47.32072508 97.4279491 -47.32072508 97.4279491 -43.125 98.2265625 C-43.125 97.5665625 -43.125 96.9065625 -43.125 96.2265625 C-45.435 95.2365625 -47.745 94.2465625 -50.125 93.2265625 Z M5.875 95.2265625 C5.5976499 98.41146257 5.5976499 98.41146257 7.875 101.2265625 C8.205 99.9065625 8.535 98.5865625 8.875 97.2265625 C7.885 96.5665625 6.895 95.9065625 5.875 95.2265625 Z M21.875 96.2265625 C24.59049154 98.53328165 24.59049154 98.53328165 27.0625 97.8515625 C27.660625 97.6453125 28.25875 97.4390625 28.875 97.2265625 C26.565 96.8965625 24.255 96.5665625 21.875 96.2265625 Z M-16.125 98.2265625 C-14.805 98.2265625 -13.485 98.2265625 -12.125 98.2265625 C-11.795 98.8865625 -11.465 99.5465625 -11.125 100.2265625 C-8.815 99.5665625 -6.505 98.9065625 -4.125 98.2265625 C-4.125 97.8965625 -4.125 97.5665625 -4.125 97.2265625 C-10.41351034 95.93039978 -10.41351034 95.93039978 -16.125 98.2265625 Z M41.875 97.2265625 C42.205 98.5465625 42.535 99.8665625 42.875 101.2265625 C43.205 100.2365625 43.535 99.2465625 43.875 98.2265625 C43.215 97.8965625 42.555 97.5665625 41.875 97.2265625 Z M-23.125 100.2265625 C-23.81207555 102.71721138 -24.125 104.60542542 -24.125 107.2265625 C-25.445 107.2265625 -26.765 107.2265625 -28.125 107.2265625 C-28.455 108.8765625 -28.785 110.5265625 -29.125 112.2265625 C-30.445 112.2265625 -31.765 112.2265625 -33.125 112.2265625 C-33.125 111.2365625 -33.125 110.2465625 -33.125 109.2265625 C-36.48415158 110.66619889 -38.84124938 112.35072839 -41.125 115.2265625 C-41.43016042 117.27073503 -41.43016042 117.27073503 -40.125 119.2265625 C-37.46238982 122.13985019 -37.46238982 122.13985019 -34.125 124.2265625 C-31.32014873 124.1858782 -31.32014873 124.1858782 -29.125 123.2265625 C-29.125 122.5665625 -29.125 121.9065625 -29.125 121.2265625 C-27.805 121.2265625 -26.485 121.2265625 -25.125 121.2265625 C-24.83625 120.1540625 -24.5475 119.0815625 -24.25 117.9765625 C-22.9587101 113.67226283 -21.52165932 110.80988502 -19 107.1015625 C-16.94291074 104.51942273 -16.94291074 104.51942273 -17.125 102.2265625 C-19.105 101.5665625 -21.085 100.9065625 -23.125 100.2265625 Z M9.875 100.2265625 C9.875 105.8365625 9.875 111.4465625 9.875 117.2265625 C9.215 117.2265625 8.555 117.2265625 7.875 117.2265625 C7.875 114.2565625 7.875 111.2865625 7.875 108.2265625 C7.545 108.8865625 7.215 109.5465625 6.875 110.2265625 C5.225 109.8965625 3.575 109.5665625 1.875 109.2265625 C1.545 107.9065625 1.215 106.5865625 0.875 105.2265625 C-2.04134129 104.9763468 -2.04134129 104.9763468 -5.125 105.2265625 C-5.785 106.2165625 -6.445 107.2065625 -7.125 108.2265625 C-6.71343437 110.5516334 -6.71343437 110.5516334 -5.75 112.9140625 C-5.45351563 113.72230469 -5.15703125 114.53054687 -4.8515625 115.36328125 C-4.61179688 115.97816406 -4.37203125 116.59304687 -4.125 117.2265625 C-3.465 117.2265625 -2.805 117.2265625 -2.125 117.2265625 C-1.795 118.2165625 -1.465 119.2065625 -1.125 120.2265625 C2.29231792 120.1164708 5.70855574 119.98589189 9.125 119.8515625 C10.57712891 119.80515625 10.57712891 119.80515625 12.05859375 119.7578125 C13.46044922 119.69980469 13.46044922 119.69980469 14.890625 119.640625 C16.17888184 119.59349365 16.17888184 119.59349365 17.49316406 119.54541016 C20.02939741 119.20589388 21.66647176 118.48765217 23.875 117.2265625 C25.875 116.2265625 25.875 116.2265625 27.875 115.2265625 C27.38 114.2365625 27.38 114.2365625 26.875 113.2265625 C28.195 112.8965625 29.515 112.5665625 30.875 112.2265625 C31.5564823 110.33477047 31.5564823 110.33477047 31.875 108.2265625 C31.215 107.5665625 30.555 106.9065625 29.875 106.2265625 C31.525 105.5665625 33.175 104.9065625 34.875 104.2265625 C34.875 103.8965625 34.875 103.5665625 34.875 103.2265625 C33.42480469 103.15308594 33.42480469 103.15308594 31.9453125 103.078125 C24.3974909 102.64468574 17.26537199 101.93203296 9.875 100.2265625 Z M-50.125 104.2265625 C-49.465 106.2065625 -48.805 108.1865625 -48.125 110.2265625 C-47.135 109.8965625 -46.145 109.5665625 -45.125 109.2265625 C-45.455 107.9065625 -45.785 106.5865625 -46.125 105.2265625 C-47.445 104.8965625 -48.765 104.5665625 -50.125 104.2265625 Z M-30.125 104.2265625 C-30.455 104.8865625 -30.785 105.5465625 -31.125 106.2265625 C-30.135 105.8965625 -29.145 105.5665625 -28.125 105.2265625 C-28.785 104.8965625 -29.445 104.5665625 -30.125 104.2265625 Z M-8.125 108.2265625 C-8.125 110.2065625 -8.125 112.1865625 -8.125 114.2265625 C-7.795 114.2265625 -7.465 114.2265625 -7.125 114.2265625 C-7.125 112.2465625 -7.125 110.2665625 -7.125 108.2265625 C-7.455 108.2265625 -7.785 108.2265625 -8.125 108.2265625 Z M-15.125 110.2265625 C-19.31018714 114.91904505 -19.52594038 118.54867323 -19.36328125 124.73828125 C-19.20650303 127.35597707 -19.20650303 127.35597707 -18.125 130.2265625 C-9.47677542 131.083475 -1.56810022 131.6891334 6.875 129.2265625 C6.875 128.5665625 6.875 127.9065625 6.875 127.2265625 C2.915 126.8965625 -1.045 126.5665625 -5.125 126.2265625 C-5.125 125.5665625 -5.125 124.9065625 -5.125 124.2265625 C-6.775 124.5565625 -8.425 124.8865625 -10.125 125.2265625 C-10.228125 124.4221875 -10.33125 123.6178125 -10.4375 122.7890625 C-11.27600373 118.44408864 -12.65321659 114.39198723 -14.125 110.2265625 C-14.455 110.2265625 -14.785 110.2265625 -15.125 110.2265625 Z " fill="#F9F9F9" transform="translate(65.125,26.7734375)"/>
<path d="M0 0 C1.3298291 -0.06767578 1.3298291 -0.06767578 2.68652344 -0.13671875 C3.46592285 -0.19021484 4.24532227 -0.24371094 5.04833984 -0.29882812 C7.08496094 0.20703125 7.08496094 0.20703125 8.68522644 2.38188171 C10.2312318 5.50225656 10.47827535 7.45468833 10.51733398 10.9152832 C10.54702522 12.59645988 10.54702522 12.59645988 10.57731628 14.31159973 C10.58370621 15.51072495 10.59009613 16.70985016 10.59667969 17.9453125 C10.61463089 19.18121628 10.63258209 20.41712006 10.65107727 21.69047546 C10.69601335 24.96359367 10.7283421 28.23651489 10.7545166 31.50982666 C10.7843852 34.85500846 10.83114161 38.19990715 10.87597656 41.54492188 C10.96093829 48.09884959 11.02927599 54.65279294 11.08496094 61.20703125 C11.7325707 57.51984097 12.37772794 53.83222555 13.02246094 50.14453125 C13.20486328 49.10619141 13.38726562 48.06785156 13.57519531 46.99804688 C14.08661127 44.06902823 14.5894325 41.13877677 15.08496094 38.20703125 C15.21273926 37.45695801 15.34051758 36.70688477 15.47216797 35.93408203 C15.72198976 34.36497663 15.91190429 32.786447 16.08496094 31.20703125 C15.75496094 30.87703125 15.42496094 30.54703125 15.08496094 30.20703125 C14.74194499 23.9184055 15.69436427 18.32377738 17.08496094 12.20703125 C17.27574219 11.33691406 17.46652344 10.46679688 17.66308594 9.5703125 C18.12962191 7.44757385 18.60624557 5.32705644 19.08496094 3.20703125 C19.74496094 3.86703125 20.40496094 4.52703125 21.08496094 5.20703125 C21.08496094 4.21703125 21.08496094 3.22703125 21.08496094 2.20703125 C21.08496094 1.87703125 21.08496094 1.54703125 21.08496094 1.20703125 C29.82680769 0.34450237 37.53269331 -0.22784965 46.08496094 2.20703125 C46.08496094 2.53703125 46.08496094 2.86703125 46.08496094 3.20703125 C43.44496094 3.20703125 40.80496094 3.20703125 38.08496094 3.20703125 C38.56032063 5.99939573 39.04006763 8.79088116 39.52246094 11.58203125 C39.65716797 12.37609375 39.791875 13.17015625 39.93066406 13.98828125 C40.59913683 18.22098108 40.59913683 18.22098108 42.08496094 22.20703125 C42.74496094 22.53703125 43.40496094 22.86703125 44.08496094 23.20703125 C44.56660118 25.64496332 44.92714727 27.99516143 45.20996094 30.45703125 C45.33951172 31.46056641 45.33951172 31.46056641 45.47167969 32.484375 C45.91639013 36.07735302 46.18316791 39.58740269 46.08496094 43.20703125 C46.74496094 43.20703125 47.40496094 43.20703125 48.08496094 43.20703125 C48.06175781 43.87089844 48.03855469 44.53476563 48.01464844 45.21875 C47.91344813 50.17033649 48.15325901 53.61923918 50.08496094 58.20703125 C50.2573142 60.89878369 50.1765379 63.50551079 50.08496094 66.20703125 C49.42496094 65.87703125 48.76496094 65.54703125 48.08496094 65.20703125 C45.92005899 65.11018037 43.7520229 65.07723687 41.58496094 65.08203125 C40.41964844 65.07945313 39.25433594 65.076875 38.05371094 65.07421875 C35.15565308 65.00218815 35.15565308 65.00218815 33.08496094 66.20703125 C32.58996094 61.75203125 32.58996094 61.75203125 32.08496094 57.20703125 C29.44496094 56.87703125 26.80496094 56.54703125 24.08496094 56.20703125 C23.42496094 59.83703125 22.76496094 63.46703125 22.08496094 67.20703125 C10.86496094 67.20703125 -0.35503906 67.20703125 -11.91503906 67.20703125 C-11.91503906 67.86703125 -11.91503906 68.52703125 -11.91503906 69.20703125 C-9.92936198 69.14192708 -7.9436849 69.07682292 -5.95800781 69.01171875 C-3.91503906 69.20703125 -3.91503906 69.20703125 -0.91503906 71.20703125 C-0.25503906 71.53703125 0.40496094 71.86703125 1.08496094 72.20703125 C4.69150132 74.61139151 4.93949026 76.15382732 6.08496094 80.20703125 C8.06496094 79.71203125 8.06496094 79.71203125 10.08496094 79.20703125 C10.08496094 97.35703125 10.08496094 115.50703125 10.08496094 134.20703125 C9.09496094 133.87703125 8.10496094 133.54703125 7.08496094 133.20703125 C7.08496094 132.54703125 7.08496094 131.88703125 7.08496094 131.20703125 C6.09496094 131.20703125 5.10496094 131.20703125 4.08496094 131.20703125 C4.08496094 131.86703125 4.08496094 132.52703125 4.08496094 133.20703125 C3.11558594 133.33078125 2.14621094 133.45453125 1.14746094 133.58203125 C-1.75765469 133.98698676 -4.56468758 134.58016665 -7.41503906 135.26953125 C-11.36214101 136.1835257 -14.87404731 136.37898835 -18.91503906 136.20703125 C-17.92503906 135.21703125 -17.92503906 135.21703125 -16.91503906 134.20703125 C-17.84316406 133.65015625 -18.77128906 133.09328125 -19.72753906 132.51953125 C-23.11019677 130.06544624 -24.24456942 128.97693291 -25.91503906 125.20703125 C-26.37305683 121.76076559 -26.38306158 118.3401946 -26.38378906 114.8671875 C-26.39140259 113.86747421 -26.39901611 112.86776093 -26.40686035 111.8377533 C-26.41764729 109.72722873 -26.42052019 107.61665084 -26.41601562 105.50610352 C-26.41504336 102.28375939 -26.45668113 99.06379739 -26.50097656 95.84179688 C-26.50618392 93.78776537 -26.50887175 91.73372561 -26.50878906 89.6796875 C-26.52518433 88.72014664 -26.54157959 87.76060577 -26.55847168 86.77198792 C-26.51253598 82.30764943 -26.38854925 79.18559119 -23.51855469 75.63061523 C-21.28931382 73.55543949 -19.66320785 72.38481787 -16.91503906 71.20703125 C-16.42003906 70.21703125 -16.42003906 70.21703125 -15.91503906 69.20703125 C-14.92503906 69.20703125 -13.93503906 69.20703125 -12.91503906 69.20703125 C-12.91503906 68.54703125 -12.91503906 67.88703125 -12.91503906 67.20703125 C-17.53503906 67.20703125 -22.15503906 67.20703125 -26.91503906 67.20703125 C-26.42003906 66.21703125 -26.42003906 66.21703125 -25.91503906 65.20703125 C-25.81858434 63.24668919 -25.78707587 61.28302554 -25.78564453 59.3203125 C-25.78091629 57.46829224 -25.78091629 57.46829224 -25.77609253 55.57885742 C-25.77788237 54.22574834 -25.77993334 52.87263958 -25.78222656 51.51953125 C-25.78155319 50.13712548 -25.78058288 48.75471982 -25.77932739 47.37231445 C-25.77785199 44.47378412 -25.77999992 41.57528457 -25.78466797 38.67675781 C-25.79036517 34.95749968 -25.78708533 31.23831371 -25.7810955 27.51905823 C-25.77748564 24.66409764 -25.77863044 21.80915422 -25.7812233 18.95419312 C-25.78189139 17.58263134 -25.78106824 16.21106802 -25.77874374 14.83950806 C-25.77621032 12.92425567 -25.78075487 11.00899783 -25.78564453 9.09375 C-25.78644012 8.00280029 -25.78723572 6.91185059 -25.78805542 5.7878418 C-25.74075882 3.21999349 -25.74075882 3.21999349 -26.91503906 1.20703125 C-23.12352429 1.03678889 -19.33180814 0.87150423 -15.54003906 0.70703125 C-14.47914063 0.65933594 -13.41824219 0.61164062 -12.32519531 0.5625 C-10.21004522 0.47166533 -8.09443935 0.39086507 -5.97851562 0.3203125 C-3.98418192 0.24656602 -1.99068246 0.1413818 0 0 Z M-13.91503906 3.20703125 C-13.91503906 11.12703125 -13.91503906 19.04703125 -13.91503906 27.20703125 C-13.58503906 27.20703125 -13.25503906 27.20703125 -12.91503906 27.20703125 C-12.91503906 19.28703125 -12.91503906 11.36703125 -12.91503906 3.20703125 C-13.24503906 3.20703125 -13.57503906 3.20703125 -13.91503906 3.20703125 Z M-11.91503906 4.20703125 C-11.91503906 11.46703125 -11.91503906 18.72703125 -11.91503906 26.20703125 C-9.27503906 26.20703125 -6.63503906 26.20703125 -3.91503906 26.20703125 C-3.88616092 22.72788184 -3.86828219 19.24876294 -3.85253906 15.76953125 C-3.84416016 14.77630859 -3.83578125 13.78308594 -3.82714844 12.75976562 C-3.82392578 11.81552734 -3.82070312 10.87128906 -3.81738281 9.8984375 C-3.812146 9.02388916 -3.80690918 8.14934082 -3.80151367 7.24829102 C-3.68719098 5.21262919 -3.68719098 5.21262919 -4.91503906 4.20703125 C-7.22503906 4.20703125 -9.53503906 4.20703125 -11.91503906 4.20703125 Z M8.08496094 5.20703125 C8.08496094 25.00703125 8.08496094 44.80703125 8.08496094 65.20703125 C8.41496094 65.20703125 8.74496094 65.20703125 9.08496094 65.20703125 C9.08496094 45.40703125 9.08496094 25.60703125 9.08496094 5.20703125 C8.75496094 5.20703125 8.42496094 5.20703125 8.08496094 5.20703125 Z M19.08496094 11.20703125 C20.08496094 14.20703125 20.08496094 14.20703125 20.08496094 14.20703125 Z M18.08496094 15.20703125 C18.08496094 17.51703125 18.08496094 19.82703125 18.08496094 22.20703125 C18.41496094 22.20703125 18.74496094 22.20703125 19.08496094 22.20703125 C19.41496094 19.89703125 19.74496094 17.58703125 20.08496094 15.20703125 C19.42496094 15.20703125 18.76496094 15.20703125 18.08496094 15.20703125 Z M29.08496094 22.20703125 C30.08496094 26.20703125 30.08496094 26.20703125 30.08496094 26.20703125 Z M17.08496094 24.20703125 C18.08496094 27.20703125 18.08496094 27.20703125 18.08496094 27.20703125 Z M-12.91503906 27.20703125 C-12.91503906 27.53703125 -12.91503906 27.86703125 -12.91503906 28.20703125 C-9.94503906 28.20703125 -6.97503906 28.20703125 -3.91503906 28.20703125 C-3.91503906 27.87703125 -3.91503906 27.54703125 -3.91503906 27.20703125 C-6.88503906 27.20703125 -9.85503906 27.20703125 -12.91503906 27.20703125 Z M42.08496094 27.20703125 C43.08496094 31.20703125 43.08496094 31.20703125 43.08496094 31.20703125 Z M28.08496094 28.20703125 C29.08496094 32.20703125 29.08496094 32.20703125 29.08496094 32.20703125 Z M30.08496094 28.20703125 C30.08496094 32.49703125 30.08496094 36.78703125 30.08496094 41.20703125 C32.07479322 37.22736668 32.3089681 36.53027993 31.70996094 32.45703125 C31.59910156 31.6578125 31.48824219 30.85859375 31.37402344 30.03515625 C31.27863281 29.431875 31.18324219 28.82859375 31.08496094 28.20703125 C30.75496094 28.20703125 30.42496094 28.20703125 30.08496094 28.20703125 Z M43.08496094 35.20703125 C44.08496094 37.20703125 44.08496094 37.20703125 44.08496094 37.20703125 Z M-13.91503906 38.20703125 C-13.91503906 46.45703125 -13.91503906 54.70703125 -13.91503906 63.20703125 C-10.94503906 63.20703125 -7.97503906 63.20703125 -4.91503906 63.20703125 C-4.58503906 63.86703125 -4.25503906 64.52703125 -3.91503906 65.20703125 C-3.88617369 60.89454516 -3.86828652 56.58208363 -3.85253906 52.26953125 C-3.84416016 51.03783203 -3.83578125 49.80613281 -3.82714844 48.53710938 C-3.82392578 47.36728516 -3.82070312 46.19746094 -3.81738281 44.9921875 C-3.812146 43.9081665 -3.80690918 42.82414551 -3.80151367 41.70727539 C-3.63077009 39.26653177 -3.63077009 39.26653177 -4.91503906 38.20703125 C-7.88503906 38.20703125 -10.85503906 38.20703125 -13.91503906 38.20703125 Z M27.08496094 41.20703125 C26.75496094 42.19703125 26.42496094 43.18703125 26.08496094 44.20703125 C27.40496094 44.20703125 28.72496094 44.20703125 30.08496094 44.20703125 C29.75496094 43.21703125 29.42496094 42.22703125 29.08496094 41.20703125 C28.42496094 41.20703125 27.76496094 41.20703125 27.08496094 41.20703125 Z M45.08496094 44.20703125 C46.08496094 48.20703125 46.08496094 48.20703125 46.08496094 48.20703125 Z M46.08496094 48.20703125 C47.08496094 52.20703125 47.08496094 52.20703125 47.08496094 52.20703125 Z M34.08496094 56.20703125 C35.08496094 60.20703125 35.08496094 60.20703125 35.08496094 60.20703125 Z M-14.91503906 70.20703125 C-14.91503906 70.53703125 -14.91503906 70.86703125 -14.91503906 71.20703125 C-11.28503906 71.20703125 -7.65503906 71.20703125 -3.91503906 71.20703125 C-3.91503906 70.87703125 -3.91503906 70.54703125 -3.91503906 70.20703125 C-7.54503906 70.20703125 -11.17503906 70.20703125 -14.91503906 70.20703125 Z M-6.91503906 82.20703125 C-5.91503906 84.20703125 -5.91503906 84.20703125 -5.91503906 84.20703125 Z M-13.91503906 86.20703125 C-13.91503906 97.75703125 -13.91503906 109.30703125 -13.91503906 121.20703125 C-12.59503906 121.53703125 -11.27503906 121.86703125 -9.91503906 122.20703125 C-9.91503906 114.28703125 -9.91503906 106.36703125 -9.91503906 98.20703125 C-4.63503906 98.20703125 0.64496094 98.20703125 6.08496094 98.20703125 C6.08496094 96.55703125 6.08496094 94.90703125 6.08496094 93.20703125 C2.45496094 93.20703125 -1.17503906 93.20703125 -4.91503906 93.20703125 C-4.91503906 90.89703125 -4.91503906 88.58703125 -4.91503906 86.20703125 C-7.88503906 86.20703125 -10.85503906 86.20703125 -13.91503906 86.20703125 Z M6.08496094 98.20703125 C7.08496094 100.20703125 7.08496094 100.20703125 7.08496094 100.20703125 Z M8.08496094 98.20703125 C9.08496094 100.20703125 9.08496094 100.20703125 9.08496094 100.20703125 Z M6.08496094 101.20703125 C6.08496094 109.12703125 6.08496094 117.04703125 6.08496094 125.20703125 C6.41496094 125.20703125 6.74496094 125.20703125 7.08496094 125.20703125 C7.08496094 117.28703125 7.08496094 109.36703125 7.08496094 101.20703125 C6.75496094 101.20703125 6.42496094 101.20703125 6.08496094 101.20703125 Z M-7.91503906 121.20703125 C-7.25503906 121.86703125 -6.59503906 122.52703125 -5.91503906 123.20703125 C-5.91503906 122.54703125 -5.91503906 121.88703125 -5.91503906 121.20703125 C-6.57503906 121.20703125 -7.23503906 121.20703125 -7.91503906 121.20703125 Z " fill="#FAFAFA" transform="translate(144.9150390625,26.79296875)"/>
<path d="M0 0 C2.06326977 0.08760589 4.1256716 0.19579273 6.1875 0.3125 C7.91033203 0.39951172 7.91033203 0.39951172 9.66796875 0.48828125 C14.53288454 1.23541369 17.70159971 3.1838056 20.6875 7.0625 C22.8510025 9.9298111 22.8510025 9.9298111 25 12 C25.1953125 15.2578125 25.1953125 15.2578125 25.125 19.125 C25.10695313 20.40632813 25.08890625 21.68765625 25.0703125 23.0078125 C25.04710937 23.99523437 25.02390625 24.98265625 25 26 C20.71 26.33 16.42 26.66 12 27 C12.495 28.98 12.495 28.98 13 31 C15.94729537 32.15811388 15.94729537 32.15811388 19 32 C24.16532304 42.94556549 26.39453573 49.88405512 23.046875 61.8984375 C21.75153059 64.49879306 20.6459985 64.93751412 18 66 C17.29875 66.53625 16.5975 67.0725 15.875 67.625 C14 69 14 69 12 69 C12 72.63 12 76.26 12 80 C9.70986347 76.5647952 9.82157027 75.014669 10 71 C9.31292969 70.96261719 8.62585938 70.92523438 7.91796875 70.88671875 C7.01691406 70.82097656 6.11585938 70.75523438 5.1875 70.6875 C4.29417969 70.62949219 3.40085938 70.57148437 2.48046875 70.51171875 C-0.34379918 69.9290745 -1.33487329 69.3289646 -3 67 C-3 66.01 -3 65.02 -3 64 C-5.4390706 61.79857668 -5.4390706 61.79857668 -8 60 C-8.66 60.66 -9.32 61.32 -10 62 C-10 56.06 -10 50.12 -10 44 C-9.34 44.99 -8.68 45.98 -8 47 C-7.34 46.67 -6.68 46.34 -6 46 C-1.26002164 45.52600216 1.68423874 45.28714643 5.5 48.3125 C8 51 8 51 8 54 C7.34 54 6.68 54 6 54 C5.34 53.01 4.68 52.02 4 51 C4 52.32 4 53.64 4 55 C6.64 55 9.28 55 12 55 C11.60304363 53.37007308 11.18167507 51.74607765 10.75 50.125 C10.40195313 48.76761719 10.40195313 48.76761719 10.046875 47.3828125 C8.78343338 44.50706852 7.79155672 44.21567793 5 43 C4.25 40.375 4.25 40.375 4 38 C3.236875 38.103125 2.47375 38.20625 1.6875 38.3125 C0.800625 38.209375 -0.08625 38.10625 -1 38 C-2.97506165 35.39009711 -3.9656701 33.10298971 -5 30 C-7.01508358 29.26676204 -7.01508358 29.26676204 -9 29 C-8.67 28.34 -8.34 27.68 -8 27 C-8.66 26.34 -9.32 25.68 -10 25 C-10.56520003 22.34462628 -10.73788198 19.70855287 -11 17 C-11.11069824 17.66418945 -11.22139648 18.32837891 -11.33544922 19.01269531 C-13.9296875 34.578125 -13.9296875 34.578125 -14.46630859 37.78808594 C-14.82241969 39.93126871 -15.17430155 42.07515846 -15.52197266 44.21972656 C-16.40098125 49.61176583 -17.35437148 54.93646253 -18.625 60.25 C-18.88539063 61.34828125 -19.14578125 62.4465625 -19.4140625 63.578125 C-19.60742188 64.37734375 -19.80078125 65.1765625 -20 66 C-26 66 -32 66 -38 66 C-38.13277344 64.92878906 -38.26554688 63.85757813 -38.40234375 62.75390625 C-38.5805056 61.35674231 -38.75890319 59.95960841 -38.9375 58.5625 C-39.02451172 57.85544922 -39.11152344 57.14839844 -39.20117188 56.41992188 C-39.38216191 52.91182032 -39.38216191 52.91182032 -41 50 C-41.07179964 48.48071962 -41.08392007 46.95832518 -41.0625 45.4375 C-41.05347656 44.61121094 -41.04445312 43.78492188 -41.03515625 42.93359375 C-41.02355469 42.29550781 -41.01195312 41.65742187 -41 41 C-40.01 40.505 -40.01 40.505 -39 40 C-39.99 40 -40.98 40 -42 40 C-42.33 40.66 -42.66 41.32 -43 42 C-44.69655602 34.19254802 -45.31263003 26.46549793 -45.6875 18.5 C-45.75988892 17.04859619 -45.75988892 17.04859619 -45.83374023 15.56787109 C-45.87184814 14.64828613 -45.90995605 13.72870117 -45.94921875 12.78125 C-45.98362061 11.95689453 -46.01802246 11.13253906 -46.0534668 10.28320312 C-46 8 -46 8 -45 4 C-41.04 4 -37.08 4 -33 4 C-32.67 5.32 -32.34 6.64 -32 8 C-31.34 6.68 -30.68 5.36 -30 4 C-29.34 8.95 -28.68 13.9 -28 19 C-26.53867783 16.07735566 -25.65900754 14.07536854 -25 11 C-24.01 11 -23.02 11 -22 11 C-22.33 8.69 -22.66 6.38 -23 4 C-20.70954632 3.77872902 -18.41755236 3.5733496 -16.125 3.375 C-14.84882813 3.25898438 -13.57265625 3.14296875 -12.2578125 3.0234375 C-11.18273437 3.01570313 -10.10765625 3.00796875 -9 3 C-6.64046906 5.35953094 -6.50858587 6.77895617 -6 10 C-5.54625 9.34 -5.0925 8.68 -4.625 8 C-4.08875 7.34 -3.5525 6.68 -3 6 C-2.34 6 -1.68 6 -1 6 C-1.495 4.02 -1.495 4.02 -2 2 C-1.34 2 -0.68 2 0 2 C0 1.34 0 0.68 0 0 Z M-45 10 C-44 12 -44 12 -44 12 Z M-8 11 C-9.26237731 13.52475462 -9.09856404 15.31200466 -9.0625 18.125 C-9.05347656 19.03507812 -9.04445312 19.94515625 -9.03515625 20.8828125 C-9.02355469 21.58148438 -9.01195312 22.28015625 -9 23 C-8.67 23 -8.34 23 -8 23 C-7.67 19.04 -7.34 15.08 -7 11 C-7.33 11 -7.66 11 -8 11 Z M-23 12 C-24.35618499 13.12534105 -24.35618499 13.12534105 -24.0625 16.0625 C-24.041875 17.031875 -24.02125 18.00125 -24 19 C-22.87483915 17.16715557 -22.87483915 17.16715557 -22 15 C-22.33 14.01 -22.66 13.02 -23 12 Z M-45 13 C-44 16 -44 16 -44 16 Z M5 14 C4.67 14.99 4.34 15.98 4 17 C4.66 17 5.32 17 6 17 C6 18.65 6 20.3 6 22 C6.33 22 6.66 22 7 22 C7 20.35 7 18.7 7 17 C8.65 17 10.3 17 12 17 C12 16.01 12 15.02 12 14 C9.69 14 7.38 14 5 14 Z M-31 16 C-30 19 -30 19 -30 19 Z M12 18 C13 20 13 20 13 20 Z M-25 19 C-25.69159401 20.84725052 -25.69159401 20.84725052 -26 23 C-25.01 24.485 -25.01 24.485 -24 26 C-23.67 24.02 -23.34 22.04 -23 20 C-23.66 19.67 -24.32 19.34 -25 19 Z M-31 20 C-30 22 -30 22 -30 22 Z M6 23 C6.33 23.66 6.66 24.32 7 25 C7.33 24.34 7.66 23.68 8 23 C7.34 23 6.68 23 6 23 Z M-30 24 C-29 26 -29 26 -29 26 Z M-43 25 C-43 26.32 -43 27.64 -43 29 C-42.34 28.67 -41.68 28.34 -41 28 C-41.66 27.01 -42.32 26.02 -43 25 Z M-29 28 C-29 29.65 -29 31.3 -29 33 C-28.67 33 -28.34 33 -28 33 C-28 31.35 -28 29.7 -28 28 C-28.33 28 -28.66 28 -29 28 Z M-26 31 C-25 34 -25 34 -25 34 Z M-41 34 C-40 37 -40 37 -40 37 Z M-29 34 C-28.67 35.65 -28.34 37.3 -28 39 C-27.34 38.67 -26.68 38.34 -26 38 C-26.33 36.68 -26.66 35.36 -27 34 C-27.66 34 -28.32 34 -29 34 Z M-39 47 C-38 50 -38 50 -38 50 Z M11 47 C12 49 12 49 12 49 Z M-38 52 C-37 56 -37 56 -37 56 Z M-37 58 C-36 61 -36 61 -36 61 Z " fill="#F9F9F9" transform="translate(236,26)"/>
<path d="M0 0 C0.125 5.75 0.125 5.75 -1 8 C-1.22467831 9.53668865 -1.40796805 11.07968054 -1.5625 12.625 C-1.64628906 13.44226562 -1.73007813 14.25953125 -1.81640625 15.1015625 C-1.90728516 16.04128906 -1.90728516 16.04128906 -2 17 C-2.33 17 -2.66 17 -3 17 C-3.33 15.35 -3.66 13.7 -4 12 C-4.11069824 12.66418945 -4.22139648 13.32837891 -4.33544922 14.01269531 C-6.9296875 29.578125 -6.9296875 29.578125 -7.46630859 32.78808594 C-7.82241969 34.93126871 -8.17430155 37.07515846 -8.52197266 39.21972656 C-9.40098125 44.61176583 -10.35437148 49.93646253 -11.625 55.25 C-11.88539063 56.34828125 -12.14578125 57.4465625 -12.4140625 58.578125 C-12.60742188 59.37734375 -12.80078125 60.1765625 -13 61 C-19 61 -25 61 -31 61 C-31.13277344 59.92878906 -31.26554688 58.85757813 -31.40234375 57.75390625 C-31.5805056 56.35674231 -31.75890319 54.95960841 -31.9375 53.5625 C-32.02451172 52.85544922 -32.11152344 52.14839844 -32.20117188 51.41992188 C-32.38216191 47.91182032 -32.38216191 47.91182032 -34 45 C-34.07179964 43.48071962 -34.08392007 41.95832518 -34.0625 40.4375 C-34.05347656 39.61121094 -34.04445312 38.78492188 -34.03515625 37.93359375 C-34.02355469 37.29550781 -34.01195312 36.65742187 -34 36 C-33.01 35.505 -33.01 35.505 -32 35 C-32.99 35 -33.98 35 -35 35 C-35.33 35.66 -35.66 36.32 -36 37 C-37.69655602 29.19254802 -38.31263003 21.46549793 -38.6875 13.5 C-38.75988892 12.04859619 -38.75988892 12.04859619 -38.83374023 10.56787109 C-38.87184814 9.64828613 -38.90995605 8.72870117 -38.94921875 7.78125 C-38.98362061 6.95689453 -39.01802246 6.13253906 -39.0534668 5.28320312 C-39 3 -39 3 -38 -1 C-34.04 -1 -30.08 -1 -26 -1 C-25.67 0.32 -25.34 1.64 -25 3 C-24.34 1.68 -23.68 0.36 -23 -1 C-22.34 3.95 -21.68 8.9 -21 14 C-19.53867783 11.07735566 -18.65900754 9.07536854 -18 6 C-17.01 6 -16.02 6 -15 6 C-15.33 3.69 -15.66 1.38 -16 -1 C-14.08496326 -1.22281874 -12.16783494 -1.42771076 -10.25 -1.625 C-9.18265625 -1.74101562 -8.1153125 -1.85703125 -7.015625 -1.9765625 C-3.96207601 -2.00029475 -2.53837579 -1.61420985 0 0 Z M-38 5 C-37 7 -37 7 -37 7 Z M-16 7 C-17.35618499 8.12534105 -17.35618499 8.12534105 -17.0625 11.0625 C-17.041875 12.031875 -17.02125 13.00125 -17 14 C-15.87483915 12.16715557 -15.87483915 12.16715557 -15 10 C-15.33 9.01 -15.66 8.02 -16 7 Z M-38 8 C-37 11 -37 11 -37 11 Z M-24 11 C-23 14 -23 14 -23 14 Z M-18 14 C-18.69159401 15.84725052 -18.69159401 15.84725052 -19 18 C-18.01 19.485 -18.01 19.485 -17 21 C-16.67 19.02 -16.34 17.04 -16 15 C-16.66 14.67 -17.32 14.34 -18 14 Z M-24 15 C-23 17 -23 17 -23 17 Z M-23 19 C-22 21 -22 21 -22 21 Z M-36 20 C-36 21.32 -36 22.64 -36 24 C-35.34 23.67 -34.68 23.34 -34 23 C-34.66 22.01 -35.32 21.02 -36 20 Z M-22 23 C-22 24.65 -22 26.3 -22 28 C-21.67 28 -21.34 28 -21 28 C-21 26.35 -21 24.7 -21 23 C-21.33 23 -21.66 23 -22 23 Z M-19 26 C-18 29 -18 29 -18 29 Z M-34 29 C-33 32 -33 32 -33 32 Z M-22 29 C-21.67 30.65 -21.34 32.3 -21 34 C-20.34 33.67 -19.68 33.34 -19 33 C-19.33 31.68 -19.66 30.36 -20 29 C-20.66 29 -21.32 29 -22 29 Z M-32 42 C-31 45 -31 45 -31 45 Z M-31 47 C-30 51 -30 51 -30 51 Z M-30 53 C-29 56 -29 56 -29 56 Z " fill="#F8F8F8" transform="translate(229,31)"/>
<path d="M0 0 C3.96 0 7.92 0 12 0 C12.33 1.98 12.66 3.96 13 6 C13.33 6 13.66 6 14 6 C14 21.18 14 36.36 14 52 C21.7588388 51.93449018 21.7588388 51.93449018 29 50 C29 54.29 29 58.58 29 63 C19.43 63 9.86 63 0 63 C0 42.21 0 21.42 0 0 Z " fill="#FFFFFF" transform="translate(156,98)"/>
<path d="M0 0 C0.33 0 0.66 0 1 0 C1.61916858 22.59489033 1.61916858 22.59489033 -2 33 C-3.32 33 -4.64 33 -6 33 C-5.54417014 30.66615111 -5.08601555 28.33282661 -4.625 26 C-4.48852051 25.3088208 -4.35204102 24.6176416 -4.21142578 23.90551758 C-3.52459444 20.4701474 -2.79858618 17.06698578 -1.875 13.6875 C-0.7969218 9.14417042 -0.36192016 4.64781675 0 0 Z " fill="#4A4A4A" transform="translate(222,63)"/>
<path d="M0 0 C0.33 0 0.66 0 1 0 C1 20.79 1 41.58 1 63 C0.67 63 0.34 63 0 63 C0 42.21 0 21.42 0 0 Z " fill="#FFFFFF" transform="translate(117,30)"/>
<path d="M0 0 C5.61 0 11.22 0 17 0 C17 0.99 17 1.98 17 3 C14.72975032 3.08097324 12.45867925 3.13917704 10.1875 3.1875 C8.29064453 3.23970703 8.29064453 3.23970703 6.35546875 3.29296875 C3 3 3 3 0 0 Z " fill="#000000" transform="translate(82,119)"/>
<path d="M0 0 C0 0.66 0 1.32 0 2 C-4.29605732 2.82222554 -8.33966603 3.11770795 -12.7109375 3.09765625 C-13.95488281 3.09443359 -15.19882813 3.09121094 -16.48046875 3.08789062 C-17.76566406 3.07951172 -19.05085938 3.07113281 -20.375 3.0625 C-21.68339844 3.05798828 -22.99179687 3.05347656 -24.33984375 3.04882812 C-27.55994281 3.03707594 -30.7799477 3.02064543 -34 3 C-34 2.67 -34 2.34 -34 2 C-33.24380371 1.97494385 -32.48760742 1.9498877 -31.70849609 1.92407227 C-28.26384541 1.80763114 -24.81943592 1.68512338 -21.375 1.5625 C-19.59029297 1.50352539 -19.59029297 1.50352539 -17.76953125 1.44335938 C-16.61582031 1.40146484 -15.46210937 1.35957031 -14.2734375 1.31640625 C-13.21560059 1.27974854 -12.15776367 1.24309082 -11.06787109 1.20532227 C-7.35186278 0.95662236 -3.71211084 0 0 0 Z " fill="#A1A1A1" transform="translate(80,162)"/>
<path d="M0 0 C0.33 0 0.66 0 1 0 C1 3.63 1 7.26 1 11 C-0.98 11 -2.96 11 -5 11 C-3.55049545 7.2089881 -1.84827434 3.6125362 0 0 Z " fill="#000000" transform="translate(79,53)"/>
<path d="M0 0 C0.55171875 0.31710938 1.1034375 0.63421875 1.671875 0.9609375 C4.28477989 2.12709975 6.40579002 2.40045711 9.25 2.625 C10.8175 2.74875 12.385 2.8725 14 3 C14 6.63 14 10.26 14 14 C11.70986347 10.5647952 11.82157027 9.014669 12 5 C11.31292969 4.96261719 10.62585938 4.92523438 9.91796875 4.88671875 C9.01691406 4.82097656 8.11585938 4.75523438 7.1875 4.6875 C5.84751953 4.60048828 5.84751953 4.60048828 4.48046875 4.51171875 C1.69396 3.93686419 0.75864246 3.1793144 -1 1 C-0.67 0.67 -0.34 0.34 0 0 Z " fill="#373737" transform="translate(234,92)"/>
<path d="M0 0 C9.24 0 18.48 0 28 0 C28 0.33 28 0.66 28 1 C18.76 1 9.52 1 0 1 C0 0.67 0 0.34 0 0 Z " fill="#FFFFFF" transform="translate(160,162)"/>
<path d="M0 0 C0.99 0 1.98 0 3 0 C3.33 2.64 3.66 5.28 4 8 C1.525 7.01 1.525 7.01 -1 6 C-0.67 4.02 -0.34 2.04 0 0 Z " fill="#212121" transform="translate(243,43)"/>
<path d="M0 0 C1.65 0 3.3 0 5 0 C5 0.99 5 1.98 5 3 C5.66 3.33 6.32 3.66 7 4 C4.69 4 2.38 4 0 4 C0 2.68 0 1.36 0 0 Z " fill="#000000" transform="translate(133,90)"/>
<path d="M0 0 C2.97 0.33 5.94 0.66 9 1 C9 1.66 9 2.32 9 3 C6.36 3 3.72 3 1 3 C0.67 2.01 0.34 1.02 0 0 Z " fill="#000000" transform="translate(46,88)"/>
<path d="M0 0 C2.97 0 5.94 0 9 0 C9.33 0.66 9.66 1.32 10 2 C6.7 2 3.4 2 0 2 C0 1.34 0 0.68 0 0 Z " fill="#939393" transform="translate(51,113)"/>
<path d="M0 0 C2.31 0 4.62 0 7 0 C6.01 0.495 6.01 0.495 5 1 C5 1.66 5 2.32 5 3 C3.35 3 1.7 3 0 3 C0 2.01 0 1.02 0 0 Z " fill="#000000" transform="translate(133,28)"/>
<path d="M0 0 C0.66 0 1.32 0 2 0 C1.67 1.98 1.34 3.96 1 6 C0.01 6 -0.98 6 -2 6 C-1.34 4.02 -0.68 2.04 0 0 Z " fill="#7F7F7F" transform="translate(107,130)"/>
<path d="M0 0 C4.29 0 8.58 0 13 0 C13 0.33 13 0.66 13 1 C8.71 1 4.42 1 0 1 C0 0.67 0 0.34 0 0 Z " fill="#FFFFFF" transform="translate(191,28)"/>
<path d="M0 0 C2.89932357 2.39509338 3.50168276 4.31245243 4 8 C1.84622436 5.37801226 0.59927826 3.35595828 0 0 Z " fill="#000000" transform="translate(28,51)"/>
<path d="M0 0 C3.3 0 6.6 0 10 0 C10 0.33 10 0.66 10 1 C6.7 1 3.4 1 0 1 C0 0.67 0 0.34 0 0 Z " fill="#FFFFFF" transform="translate(215,28)"/>
<path d="M0 0 C0.33 0 0.66 0 1 0 C1 2.97 1 5.94 1 9 C0.67 9 0.34 9 0 9 C0 6.03 0 3.06 0 0 Z " fill="#000000" transform="translate(225,55)"/>
<path d="M0 0 C2.64 0 5.28 0 8 0 C8 0.33 8 0.66 8 1 C5.36 1 2.72 1 0 1 C0 0.67 0 0.34 0 0 Z " fill="#000000" transform="translate(192,163)"/>
<path d="M0 0 C2.64 0 5.28 0 8 0 C8 0.33 8 0.66 8 1 C5.36 1 2.72 1 0 1 C0 0.67 0 0.34 0 0 Z " fill="#FFFFFF" transform="translate(132,66)"/>
<path d="M0 0 C0.33 0 0.66 0 1 0 C1 2.31 1 4.62 1 7 C0.67 7 0.34 7 0 7 C0 4.69 0 2.38 0 0 Z " fill="#FFFFFF" transform="translate(117,146)"/>
<path d="M0 0 C0.33 0 0.66 0 1 0 C1 2.31 1 4.62 1 7 C0.67 7 0.34 7 0 7 C0 4.69 0 2.38 0 0 Z " fill="#FFFFFF" transform="translate(299,106)"/>
<path d="M0 0 C0.33 0 0.66 0 1 0 C1 2.31 1 4.62 1 7 C0.67 7 0.34 7 0 7 C0 4.69 0 2.38 0 0 Z " fill="#FFFFFF" transform="translate(117,106)"/>
<path d="M0 0 C2.31 0 4.62 0 7 0 C7 0.33 7 0.66 7 1 C4.69 1 2.38 1 0 1 C0 0.67 0 0.34 0 0 Z " fill="#FFFFFF" transform="translate(282,96)"/>
<path d="M0 0 C2.31 0 4.62 0 7 0 C7 0.33 7 0.66 7 1 C4.69 1 2.38 1 0 1 C0 0.67 0 0.34 0 0 Z " fill="#FFFFFF" transform="translate(274,96)"/>
<path d="M0 0 C0.33 0 0.66 0 1 0 C1 2.31 1 4.62 1 7 C0.67 7 0.34 7 0 7 C0 4.69 0 2.38 0 0 Z " fill="#FFFFFF" transform="translate(157,70)"/>
<path d="M0 0 C0.33 0 0.66 0 1 0 C1 2.31 1 4.62 1 7 C0.67 7 0.34 7 0 7 C0 4.69 0 2.38 0 0 Z " fill="#FFFFFF" transform="translate(223,54)"/>
<path d="M0 0 C0.99 0 1.98 0 3 0 C3 0.66 3 1.32 3 2 C2.01 2 1.02 2 0 2 C0 1.34 0 0.68 0 0 Z " fill="#D4D4D4" transform="translate(42,131)"/>
<path d="M0 0 C0.66 1.32 1.32 2.64 2 4 C1.01 4.495 1.01 4.495 0 5 C0 3.35 0 1.7 0 0 Z " fill="#D4D4D4" transform="translate(224,49)"/>
<path d="M0 0 C1.65 0 3.3 0 5 0 C5 0.33 5 0.66 5 1 C3.35 1 1.7 1 0 1 C0 0.67 0 0.34 0 0 Z " fill="#999999" transform="translate(59,134)"/>
<path d="M0 0 C1.65 0 3.3 0 5 0 C5 0.33 5 0.66 5 1 C3.35 1 1.7 1 0 1 C0 0.67 0 0.34 0 0 Z " fill="#FFFFFF" transform="translate(280,109)"/>
<path d="M0 0 C4 1 4 1 4 1 Z " fill="#FFFFFF" transform="translate(41,163)"/>
<path d="M0 0 C4 1 4 1 4 1 Z " fill="#BFBFBF" transform="translate(37,162)"/>
<path d="M0 0 C0.33 0.99 0.66 1.98 1 3 C0.34 2.67 -0.32 2.34 -1 2 C-0.67 1.34 -0.34 0.68 0 0 Z " fill="#BFBFBF" transform="translate(248,158)"/>
<path d="M0 0 C0.66 0.66 1.32 1.32 2 2 C1.34 2 0.68 2 0 2 C0 1.34 0 0.68 0 0 Z " fill="#000000" transform="translate(182,144)"/>
<path d="M0 0 C0.66 0 1.32 0 2 0 C1.67 0.66 1.34 1.32 1 2 C0.67 1.34 0.34 0.68 0 0 Z " fill="#FFFFFF" transform="translate(25,144)"/>
<path d="M0 0 C0.33 0.66 0.66 1.32 1 2 C0.34 1.67 -0.32 1.34 -1 1 C-0.67 0.67 -0.34 0.34 0 0 Z " fill="#FFFFFF" transform="translate(93,51)"/>
<path d="M0 0 C0.99 0.495 0.99 0.495 2 1 C1.01 1.495 1.01 1.495 0 2 C0 1.34 0 0.68 0 0 Z " fill="#AAAAAA" transform="translate(91,50)"/>
<path d="M0 0 C2 1 2 1 2 1 Z " fill="#000000" transform="translate(188,163)"/>
<path d="" fill="#FFFFFF" transform="translate(0,0)"/>
<path d="M0 0 C2 1 2 1 2 1 Z " fill="#FFFFFF" transform="translate(28,147)"/>
<path d="" fill="#FFFFFF" transform="translate(0,0)"/>
<path d="" fill="#FFFFFF" transform="translate(0,0)"/>
<path d="" fill="#FFFFFF" transform="translate(0,0)"/>
<path d="M0 0 C2 1 2 1 2 1 Z " fill="#FFFFFF" transform="translate(289,97)"/>
<path d="M0 0 C2 1 2 1 2 1 Z " fill="#FFFFFF" transform="translate(39,76)"/>
<path d="" fill="#000000" transform="translate(0,0)"/>
<path d="" fill="#7F7F7F" transform="translate(0,0)"/>
<path d="" fill="#FFFFFF" transform="translate(0,0)"/>
<path d="M0 0 C2 1 2 1 2 1 Z " fill="#FFFFFF" transform="translate(23,37)"/>
<path d="" fill="#FFFFFF" transform="translate(0,0)"/>
<path d="" fill="#FFFFFF" transform="translate(0,0)"/>
<path d="" fill="#FFFFFF" transform="translate(0,0)"/>
<path d="" fill="#FFFFFF" transform="translate(0,0)"/>
<path d="" fill="#FFFFFF" transform="translate(0,0)"/>
<path d="" fill="#FFFFFF" transform="translate(0,0)"/>
<path d="" fill="#FFFFFF" transform="translate(0,0)"/>
<path d="" fill="#FFFFFF" transform="translate(0,0)"/>
<path d="" fill="#FFFFFF" transform="translate(0,0)"/>
<path d="" fill="#FFFFFF" transform="translate(0,0)"/>
<path d="" fill="#FFFFFF" transform="translate(0,0)"/>
<path d="" fill="#FFFFFF" transform="translate(0,0)"/>
<path d="" fill="#FFFFFF" transform="translate(0,0)"/>
<path d="" fill="#FFFFFF" transform="translate(0,0)"/>
<path d="" fill="#000000" transform="translate(0,0)"/>
<path d="" fill="#000000" transform="translate(0,0)"/>
<path d="" fill="#000000" transform="translate(0,0)"/>
<path d="" fill="#000000" transform="translate(0,0)"/>
<path d="" fill="#000000" transform="translate(0,0)"/>
<path d="" fill="#FFFFFF" transform="translate(0,0)"/>
<path d="" fill="#000000" transform="translate(0,0)"/>
<path d="" fill="#FFFFFF" transform="translate(0,0)"/>
<path d="" fill="#000000" transform="translate(0,0)"/>
<path d="" fill="#000000" transform="translate(0,0)"/>
<path d="" fill="#000000" transform="translate(0,0)"/>
<path d="" fill="#FFFFFF" transform="translate(0,0)"/>
<path d="" fill="#FFFFFF" transform="translate(0,0)"/>
<path d="" fill="#FFFFFF" transform="translate(0,0)"/>
<path d="" fill="#FFFFFF" transform="translate(0,0)"/>
<path d="" fill="#FFFFFF" transform="translate(0,0)"/>
<path d="" fill="#FFFFFF" transform="translate(0,0)"/>
<path d="" fill="#FFFFFF" transform="translate(0,0)"/>
<path d="" fill="#FFFFFF" transform="translate(0,0)"/>
<path d="" fill="#FFFFFF" transform="translate(0,0)"/>
<path d="" fill="#FFFFFF" transform="translate(0,0)"/>
<path d="" fill="#FFFFFF" transform="translate(0,0)"/>
<path d="" fill="#FFFFFF" transform="translate(0,0)"/>
<path d="" fill="#FFFFFF" transform="translate(0,0)"/>
<path d="" fill="#FFFFFF" transform="translate(0,0)"/>
<path d="" fill="#FFFFFF" transform="translate(0,0)"/>
<path d="" fill="#FFFFFF" transform="translate(0,0)"/>
<path d="" fill="#FFFFFF" transform="translate(0,0)"/>
<path d="" fill="#000000" transform="translate(0,0)"/>
<path d="" fill="#FFFFFF" transform="translate(0,0)"/>
<path d="" fill="#FFFFFF" transform="translate(0,0)"/>
<path d="" fill="#FFFFFF" transform="translate(0,0)"/>
<path d="" fill="#FFFFFF" transform="translate(0,0)"/>
<path d="" fill="#000000" transform="translate(0,0)"/>
<path d="" fill="#FFFFFF" transform="translate(0,0)"/>
<path d="" fill="#FFFFFF" transform="translate(0,0)"/>
<path d="" fill="#FFFFFF" transform="translate(0,0)"/>
<path d="" fill="#FFFFFF" transform="translate(0,0)"/>
<path d="" fill="#FFFFFF" transform="translate(0,0)"/>
<path d="" fill="#FFFFFF" transform="translate(0,0)"/>
<path d="" fill="#FFFFFF" transform="translate(0,0)"/>
<path d="" fill="#FFFFFF" transform="translate(0,0)"/>
<path d="" fill="#FFFFFF" transform="translate(0,0)"/>
<path d="" fill="#FFFFFF" transform="translate(0,0)"/>
<path d="" fill="#FFFFFF" transform="translate(0,0)"/>
<path d="" fill="#FFFFFF" transform="translate(0,0)"/>
<path d="" fill="#FFFFFF" transform="translate(0,0)"/>
<path d="" fill="#FFFFFF" transform="translate(0,0)"/>
<path d="" fill="#FFFFFF" transform="translate(0,0)"/>
<path d="" fill="#FFFFFF" transform="translate(0,0)"/>
<path d="" fill="#FFFFFF" transform="translate(0,0)"/>
<path d="" fill="#FFFFFF" transform="translate(0,0)"/>
<path d="" fill="#FFFFFF" transform="translate(0,0)"/>
<path d="" fill="#FFFFFF" transform="translate(0,0)"/>
<path d="" fill="#FFFFFF" transform="translate(0,0)"/>
<path d="" fill="#FFFFFF" transform="translate(0,0)"/>
<path d="" fill="#FFFFFF" transform="translate(0,0)"/>
<path d="" fill="#FFFFFF" transform="translate(0,0)"/>
<path d="" fill="#FFFFFF" transform="translate(0,0)"/>
<path d="" fill="#FFFFFF" transform="translate(0,0)"/>
</svg>
